<svg width="55" height="2" viewBox="0 0 55 2" fill="none" xmlns="http://www.w3.org/2000/svg">
<ellipse opacity="0.9" cx="48.5469" cy="0.980326" rx="0.980367" ry="0.951899" transform="rotate(-90 48.5469 0.980326)" fill="#1974B6"/>
<ellipse cx="53.3063" cy="0.980326" rx="0.980367" ry="0.951899" transform="rotate(-90 53.3063 0.980326)" fill="#1974B6"/>
<ellipse opacity="0.7" cx="39.0278" cy="0.980326" rx="0.980367" ry="0.951899" transform="rotate(-90 39.0278 0.980326)" fill="#1974B6"/>
<ellipse opacity="0.8" cx="43.7873" cy="0.980326" rx="0.980367" ry="0.951899" transform="rotate(-90 43.7873 0.980326)" fill="#1974B6"/>
<ellipse opacity="0.5" cx="29.5088" cy="0.980326" rx="0.980367" ry="0.951899" transform="rotate(-90 29.5088 0.980326)" fill="#1974B6"/>
<ellipse opacity="0.6" cx="34.2683" cy="0.980326" rx="0.980367" ry="0.951899" transform="rotate(-90 34.2683 0.980326)" fill="#1974B6"/>
<ellipse opacity="0.3" cx="19.9899" cy="0.980326" rx="0.980367" ry="0.951899" transform="rotate(-90 19.9899 0.980326)" fill="#1974B6"/>
<ellipse opacity="0.4" cx="24.7494" cy="0.980326" rx="0.980367" ry="0.951899" transform="rotate(-90 24.7494 0.980326)" fill="#1974B6"/>
<ellipse opacity="0.1" cx="10.4708" cy="0.980326" rx="0.980367" ry="0.951899" transform="rotate(-90 10.4708 0.980326)" fill="#1974B6"/>
<ellipse opacity="0.2" cx="15.2303" cy="0.980326" rx="0.980367" ry="0.951899" transform="rotate(-90 15.2303 0.980326)" fill="#1974B6"/>
<ellipse opacity="0.1" cx="0.951899" cy="0.980326" rx="0.980367" ry="0.951899" transform="rotate(-90 0.951899 0.980326)" fill="#1974B6"/>
<ellipse opacity="0.1" cx="5.71142" cy="0.980326" rx="0.980367" ry="0.951899" transform="rotate(-90 5.71142 0.980326)" fill="#1974B6"/>
</svg>
