<svg width="20" height="20" viewBox="0 0 20 20" fill="none" xmlns="http://www.w3.org/2000/svg">
<path d="M14.7989 11.4922C14.76 11.4735 13.3019 10.7555 13.0428 10.6623C12.937 10.6243 12.8237 10.5872 12.7032 10.5872C12.5063 10.5872 12.3409 10.6853 12.2121 10.878C12.0665 11.0945 11.6256 11.6099 11.4893 11.7639C11.4715 11.7842 11.4472 11.8085 11.4327 11.8085C11.4196 11.8085 11.194 11.7156 11.1257 11.6859C9.56159 11.0065 8.37438 9.37266 8.21159 9.09714C8.18834 9.05753 8.18737 9.03954 8.18718 9.03954C8.19289 9.01856 8.24549 8.96584 8.27263 8.93863C8.35205 8.86006 8.43808 8.75649 8.52133 8.65629C8.56075 8.60882 8.60023 8.56129 8.63899 8.51649C8.75977 8.37597 8.81354 8.26688 8.87588 8.14051L8.90854 8.07486C9.06075 7.77246 8.93075 7.51727 8.88873 7.43486C8.85425 7.3659 8.2386 5.88006 8.17315 5.72395C8.01575 5.34726 7.80776 5.17188 7.51873 5.17188C7.49191 5.17188 7.51873 5.17187 7.40627 5.17662C7.26932 5.18239 6.52354 5.28058 6.1938 5.48843C5.84412 5.70889 5.25256 6.41162 5.25256 7.64746C5.25256 8.75973 5.95841 9.80993 6.26146 10.2093C6.26899 10.2194 6.28282 10.2399 6.30289 10.2692C7.46347 11.9641 8.91029 13.2203 10.377 13.8062C11.789 14.3702 12.4576 14.4354 12.8378 14.4354C12.8378 14.4354 12.8378 14.4354 12.8378 14.4354C12.9976 14.4354 13.1254 14.4229 13.2382 14.4117L13.3098 14.4049C13.7976 14.3617 14.8695 13.8062 15.1133 13.1286C15.3054 12.5949 15.3561 12.0118 15.2283 11.8002C15.1407 11.6563 14.9899 11.5839 14.7989 11.4922Z" fill="#2DCEA7"/>
<path d="M10.1775 0C4.7609 0 0.354141 4.37364 0.354141 9.74955C0.354141 11.4883 0.819466 13.1903 1.70096 14.6799L0.0137512 19.6569C-0.0176774 19.7497 0.0056992 19.8523 0.0743356 19.9221C0.123881 19.9727 0.191089 20 0.259725 20C0.286024 20 0.312517 19.996 0.338362 19.9878L5.52797 18.3387C6.9481 19.0975 8.55317 19.498 10.1776 19.498C15.5937 19.4981 20 15.1249 20 9.74955C20 4.37364 15.5937 0 10.1775 0ZM10.1775 17.4671C8.64901 17.4671 7.16856 17.0258 5.89596 16.1907C5.85317 16.1626 5.80349 16.1482 5.75349 16.1482C5.72707 16.1482 5.70057 16.1522 5.67479 16.1604L3.07512 16.9868L3.91434 14.5108C3.94148 14.4307 3.92791 14.3423 3.87791 14.274C2.90882 12.9499 2.39654 11.3854 2.39654 9.74955C2.39654 5.49351 5.88707 2.03091 10.1775 2.03091C14.4673 2.03091 17.9575 5.49351 17.9575 9.74955C17.9575 14.0051 14.4675 17.4671 10.1775 17.4671Z" fill="#2DCEA7"/>
</svg>
