<svg width="114" height="5" viewBox="0 0 114 5" fill="none" xmlns="http://www.w3.org/2000/svg">
<ellipse opacity="0.9" cx="102" cy="2.73657" rx="2.05981" ry="2" transform="rotate(-90 102 2.73657)" fill="#1974B6"/>
<ellipse cx="112" cy="2.73657" rx="2.05981" ry="2" transform="rotate(-90 112 2.73657)" fill="#1974B6"/>
<ellipse opacity="0.7" cx="82" cy="2.73657" rx="2.05981" ry="2" transform="rotate(-90 82 2.73657)" fill="#1974B6"/>
<ellipse opacity="0.8" cx="92" cy="2.73657" rx="2.05981" ry="2" transform="rotate(-90 92 2.73657)" fill="#1974B6"/>
<ellipse opacity="0.5" cx="62" cy="2.73657" rx="2.05981" ry="2" transform="rotate(-90 62 2.73657)" fill="#1974B6"/>
<ellipse opacity="0.6" cx="72" cy="2.73657" rx="2.05981" ry="2" transform="rotate(-90 72 2.73657)" fill="#1974B6"/>
<ellipse opacity="0.3" cx="42" cy="2.73657" rx="2.05981" ry="2" transform="rotate(-90 42 2.73657)" fill="#1974B6"/>
<ellipse opacity="0.4" cx="52" cy="2.73657" rx="2.05981" ry="2" transform="rotate(-90 52 2.73657)" fill="#1974B6"/>
<ellipse opacity="0.1" cx="22" cy="2.73657" rx="2.05981" ry="2" transform="rotate(-90 22 2.73657)" fill="#1974B6"/>
<ellipse opacity="0.2" cx="32" cy="2.73657" rx="2.05981" ry="2" transform="rotate(-90 32 2.73657)" fill="#1974B6"/>
<ellipse opacity="0.1" cx="2" cy="2.73657" rx="2.05981" ry="2" transform="rotate(-90 2 2.73657)" fill="#1974B6"/>
<ellipse opacity="0.1" cx="12" cy="2.73657" rx="2.05981" ry="2" transform="rotate(-90 12 2.73657)" fill="#1974B6"/>
</svg>
